<svg width="19" height="21" viewBox="0 0 19 21" fill="none" xmlns="http://www.w3.org/2000/svg">
<path d="M16.8202 0.0834961H2.8049C1.62301 0.0834961 0.660767 1.04183 0.660767 2.22933V16.3127C0.660767 17.5002 1.62301 18.4585 2.8049 18.4585H14.6656L14.1113 16.5314L15.4501 17.771L16.7156 18.9377L18.9643 20.9168V2.22933C18.9643 1.04183 18.0021 0.0834961 16.8202 0.0834961ZM12.783 13.6877C12.783 13.6877 12.4064 13.2397 12.0927 12.8439C13.4628 12.4585 13.9858 11.6043 13.9858 11.6043C13.5569 11.8856 13.149 12.0835 12.783 12.2189C12.26 12.4377 11.758 12.5835 11.2664 12.6668C10.2623 12.8543 9.34189 12.8022 8.55745 12.6564C7.96128 12.5418 7.44878 12.3752 7.01995 12.2085C6.77939 12.1147 6.51791 12.0002 6.25643 11.8543C6.22505 11.8335 6.19367 11.8231 6.1623 11.8022C6.14138 11.7918 6.13092 11.7814 6.12046 11.771C5.93219 11.6668 5.8276 11.5939 5.8276 11.5939C5.8276 11.5939 6.32964 12.4272 7.65796 12.8231C7.34418 13.2189 6.95719 13.6877 6.95719 13.6877C4.64571 13.6147 3.76714 12.1043 3.76714 12.1043C3.76714 8.75016 5.27327 6.03141 5.27327 6.03141C6.77939 4.90641 8.2123 4.93766 8.2123 4.93766L8.31689 5.06266C6.43424 5.60433 5.56612 6.42725 5.56612 6.42725C5.56612 6.42725 5.79623 6.30225 6.18322 6.12516C7.30235 5.63558 8.19138 5.50016 8.55745 5.46891C8.6202 5.4585 8.6725 5.44808 8.73526 5.44808C9.37327 5.36475 10.0949 5.34391 10.848 5.42725C11.8416 5.54183 12.9085 5.8335 13.9962 6.42725C13.9962 6.42725 13.1699 5.646 11.3919 5.10433L11.5383 4.93766C11.5383 4.93766 12.9712 4.90641 14.4773 6.03141C14.4773 6.03141 15.9835 8.75016 15.9835 12.1043C15.9835 12.1043 15.0944 13.6147 12.783 13.6877Z" fill="white"/>
</svg>
